PathFileType	4	(X/Y/Z)	webcam_static.trc
DataRate	CameraRate	NumFrames	NumMarkers	Units	OrigDataRate	OrigDataStartFrame	OrigNumFrames
29.300983568096093	29.300983568096093	16	12	mm	29.300983568096093	648	1294
Frame#	Time	JOINT_RIGHT_SHOULDER			JOINT_LEFT_SHOULDER			JOINT_RIGHT_ELBOW			JOINT_LEFT_ELBOW			JOINT_LEFT_WRIST			JOINT_RIGHT_WRIST			JOINT_RIGHT_PINKY			JOINT_LEFT_PINKY			JOINT_RIGHT_INDEX			JOINT_LEFT_INDEX			JOINT_RIGHT_HIP			JOINT_LEFT_HIP
		X1	Y1	Z1	X2	Y2	Z2	X3	Y3	Z3	X4	Y4	Z4	X5	Y5	Z5	X6	Y6	Z6	X7	Y7	Z7	X8	Y8	Z8	X9	Y9	Z9	X10	Y10	Z10	X11	Y11	Z11	X12	Y12	Z12

648	1753709330.501553	181.674540	423.805326	167.938530	115.847073	426.364630	-162.027583	157.865912	159.942359	225.923911	85.806660	185.813561	-190.651506	198.841423	-9.831966	-272.095829	249.859825	-44.881281	321.386307	271.111965	-97.267650	347.596407	223.472923	-76.097265	-301.665485	308.161557	-99.684626	334.896356	261.280775	-79.099715	-283.313692	16.417235	0.974838	119.226113	-17.706830	-0.192807	-118.432410
649	1753709330.539662	181.912035	423.736721	168.086544	115.716673	426.354736	-161.777034	158.031344	159.895450	225.948989	85.741721	185.827851	-190.248847	198.402673	-9.825336	-272.047043	249.794528	-45.064773	321.534544	270.994008	-97.531997	347.949535	222.694591	-76.094545	-301.623583	308.025718	-100.091740	335.283369	260.620475	-79.108991	-283.312649	16.427256	0.985585	119.216554	-17.717112	-0.201743	-118.423171
650	1753709330.574955	182.905748	423.613459	168.167815	116.692707	426.290929	-161.536694	159.651324	159.813285	225.954488	86.843342	185.792282	-189.848125	199.601039	-9.822665	-271.941960	251.774281	-45.199070	321.671963	273.239583	-97.723179	348.054230	223.977804	-76.077975	-301.601440	310.426950	-100.301012	335.407883	261.883825	-79.097167	-283.314437	16.341094	0.973155	119.205616	-17.633561	-0.188322	-118.412547
651	1753709330.606719	183.487669	423.512399	168.211415	116.721056	426.196545	-161.290318	160.059139	159.790963	225.920618	86.748563	185.748607	-189.571068	199.504390	-9.984575	-271.826833	251.949668	-45.466181	321.687847	273.397624	-98.109737	348.097712	223.800004	-76.277569	-301.501244	310.560852	-100.851454	335.431814	261.783928	-79.370685	-283.283204	16.334733	0.974885	119.180486	-17.627900	-0.189385	-118.387826
652	1753709330.643981	183.532625	423.244268	168.242112	116.647303	426.179796	-161.188319	160.060003	159.484625	225.823611	86.680286	185.751632	-189.489067	199.400112	-10.001188	-271.800965	251.877487	-45.837365	321.670055	273.335725	-98.572724	348.123431	223.491520	-76.366343	-301.408142	310.460240	-101.425946	335.516751	261.574775	-79.506911	-283.241689	16.338505	0.962645	119.168989	-17.630918	-0.175262	-118.375190
653	1753709330.673277	183.634400	422.931910	168.278724	116.589181	426.129431	-161.108017	160.020724	159.242347	225.688934	86.425997	185.741991	-189.461231	198.944971	-10.096892	-271.830291	251.689106	-46.408236	321.612984	273.039818	-99.444836	348.131388	222.716689	-76.602004	-301.403403	310.190707	-102.520168	335.528105	260.942966	-79.851873	-283.270627	16.359733	0.962063	119.160637	-17.651996	-0.173393	-118.366420
654	1753709330.710878	183.574647	422.826111	168.292075	115.846902	426.125199	-160.912380	159.705028	159.099966	225.374728	84.961213	185.811877	-189.261705	197.121337	-10.101950	-271.760255	250.860661	-46.643782	321.465284	272.025794	-99.805340	348.069161	220.661148	-76.637976	-301.296085	309.240043	-102.975599	335.487992	258.967608	-79.917759	-283.211231	16.405473	0.948896	119.147129	-17.698251	-0.158546	-118.353099
655	1753709330.742306	184.305415	422.663212	168.522820	115.995109	426.094115	-160.626441	160.064891	159.040079	225.348905	84.913924	185.806170	-188.938677	197.060585	-10.187280	-271.529704	251.384407	-46.777468	321.470171	272.712409	-100.064881	348.073959	220.597968	-76.894879	-301.060766	310.172588	-103.259034	335.495174	258.927584	-80.255330	-282.994211	16.424444	0.903699	119.141839	-17.717954	-0.109857	-118.347749
656	1753709330.778182	184.283912	422.355682	168.534383	115.990907	426.062673	-160.588458	160.054266	158.658087	225.263625	84.905058	185.805842	-188.879400	197.117388	-10.212515	-271.416664	251.334786	-47.156151	321.472973	272.566199	-100.445747	348.204046	220.599025	-76.964192	-300.810128	309.926212	-103.703730	335.699618	258.948326	-80.412634	-282.823652	16.428228	0.932285	119.119003	-17.721087	-0.136805	-118.323587
657	1753709330.808885	184.173986	422.327459	168.616965	116.007902	426.031202	-160.439104	160.033733	158.633873	225.249976	85.036524	185.842916	-188.854396	197.454765	-10.139642	-271.223754	251.295328	-47.183048	321.468532	272.511572	-100.492686	348.214865	220.998257	-76.929137	-300.487161	309.858054	-103.757881	335.717499	259.299278	-80.386192	-282.444119	16.385490	0.946906	119.104281	-17.677596	-0.151072	-118.308499
658	1753709330.845651	184.230700	422.284484	168.625847	116.115704	426.090866	-160.450429	160.036027	158.579752	225.180611	85.025735	186.048239	-188.840717	197.427556	-10.114967	-271.203190	251.265436	-47.247641	321.549386	272.446066	-100.616075	348.495364	220.932484	-76.953687	-300.448895	309.807450	-103.927054	336.094946	259.251654	-80.480263	-282.408535	16.380712	0.922191	119.106501	-17.672423	-0.123766	-118.309729
659	1753709330.878929	183.364764	422.257602	168.722719	115.757786	426.116049	-160.377562	158.291519	158.558786	225.209922	84.579855	186.191753	-188.818350	197.132781	-10.108335	-271.064550	248.825014	-47.474578	321.677864	269.595295	-100.972295	348.711163	220.643416	-76.976418	-300.192267	306.879848	-104.319640	336.378932	258.983225	-80.542937	-282.102823	16.381796	0.933583	119.099580	-17.673878	-0.134127	-118.303411
660	1753709330.914790	183.250919	422.189057	169.222936	115.925066	425.990552	-160.131767	158.160403	158.538908	225.579545	85.444607	186.146736	-188.691393	199.031025	-10.109150	-270.824462	248.802274	-47.565300	321.950376	269.585043	-101.123832	348.833412	223.205566	-76.988883	-299.988449	306.905478	-104.392029	336.521626	261.219293	-80.550782	-281.746864	16.322615	0.845681	119.105540	-17.618051	-0.047814	-118.310146
661	1753709330.948648	183.271438	422.025204	169.496000	116.059013	425.887823	-160.109878	158.111975	158.521056	225.700349	85.693553	186.170980	-188.739076	199.704528	-10.028580	-270.787567	248.799428	-47.618985	322.022021	269.621402	-101.273470	348.852217	224.194601	-76.971762	-299.874306	307.060897	-104.437374	336.550921	262.091815	-80.523871	-281.483591	16.306581	0.803408	119.127706	-17.602921	-0.005639	-118.332557
662	1753709330.985548	183.264881	421.583146	169.656903	116.038725	425.670236	-160.060793	157.885537	158.345401	225.824460	85.632622	186.158478	-188.723996	199.684247	-10.042630	-270.764560	248.443902	-47.851112	322.213978	269.261390	-101.654395	349.017024	224.161431	-77.087186	-299.827009	306.875020	-104.706503	336.746693	262.064934	-80.633789	-281.362891	16.305484	0.721329	119.146958	-17.601978	0.077832	-118.351370
663	1753709331.016060	183.155313	421.098202	169.844761	115.902960	425.462037	-159.850970	157.733083	158.018842	226.100013	85.563466	186.079293	-188.689232	199.618101	-10.067908	-270.720452	248.103425	-48.257872	322.605163	268.790364	-102.024838	349.452823	224.045411	-77.121779	-299.761951	306.403935	-105.063722	337.194711	261.937290	-80.654800	-281.270802	16.310183	0.674491	119.148716	-17.606707	0.124571	-118.353024
